<?xml version="1.0" standalone="no"?>
<!DOCTYPE svg PUBLIC "-//W3C//DTD SVG 20010904//EN"
 "http://www.w3.org/TR/2001/REC-SVG-20010904/DTD/svg10.dtd">
<svg version="1.0" xmlns="http://www.w3.org/2000/svg"
 width="254.000000pt" height="172.000000pt" viewBox="0 0 254.000000 172.000000"
 preserveAspectRatio="xMidYMid meet">

<g transform="translate(0.000000,172.000000) scale(0.100000,-0.100000)"
fill="#000000" stroke="none">
<path d="M1589 1553 c-15 -2 -34 -12 -42 -21 -8 -9 -26 -80 -41 -157 -14 -77
-34 -171 -42 -210 -9 -38 -18 -79 -19 -90 -4 -29 -42 -163 -50 -176 -4 -6 -9
-29 -11 -52 -2 -23 -13 -85 -24 -138 -11 -53 -23 -134 -26 -180 -6 -71 -4 -87
10 -98 14 -12 19 -11 35 3 10 10 21 27 24 39 3 12 11 42 17 67 7 25 13 56 15
70 6 61 18 110 26 110 5 0 9 12 9 28 0 44 12 102 20 97 4 -2 5 6 2 20 -3 20 2
26 29 38 19 8 43 24 53 36 11 11 22 21 25 21 3 0 22 -30 41 -67 19 -37 45 -79
58 -92 12 -14 22 -29 22 -34 0 -20 77 -77 105 -77 19 0 19 5 -4 54 -44 96 -51
115 -51 133 0 10 -9 45 -20 77 -35 105 -38 100 128 233 82 65 173 136 204 158
57 41 84 72 73 83 -14 14 -217 -102 -338 -193 -89 -67 -133 -95 -145 -90 -10
3 -37 -1 -59 -9 l-40 -14 9 46 c4 26 12 61 18 77 5 17 19 77 30 135 12 58 26
112 31 121 9 18 -15 60 -34 58 -7 -1 -24 -4 -38 -6z m-19 -507 c0 -8 -4 -18
-10 -21 -5 -3 -10 3 -10 14 0 12 5 21 10 21 6 0 10 -6 10 -14z"/>
<path d="M763 1528 c-21 -10 -45 -26 -53 -36 -8 -9 -36 -33 -61 -52 -48 -36
-91 -89 -96 -119 -2 -9 -1 -26 2 -39 5 -22 7 -21 46 19 23 24 48 53 56 66 18
27 37 31 29 6 -12 -37 -49 -219 -50 -243 -1 -14 -5 -31 -9 -37 -5 -7 -6 -13
-2 -13 3 0 1 -9 -5 -21 -6 -11 -13 -37 -15 -57 -2 -20 -22 -127 -44 -237 -23
-109 -41 -216 -41 -235 0 -20 -3 -39 -6 -43 -10 -9 -13 -82 -5 -96 9 -14 46
-7 74 14 13 9 20 31 23 72 3 32 12 81 20 109 8 28 12 60 8 70 -4 12 -3 15 3 7
6 -8 9 7 10 41 2 68 22 144 33 126 6 -9 8 -6 8 11 0 13 5 42 10 64 6 22 14 56
17 75 7 41 13 46 73 54 26 3 73 14 105 23 78 21 57 33 -60 33 l-92 0 4 43 c2
24 10 70 18 103 8 32 23 94 33 136 11 47 24 80 33 84 31 13 208 17 215 5 4 -6
1 -11 -8 -11 -19 0 -21 -16 -5 -26 7 -4 37 -10 68 -13 50 -5 56 -9 55 -29 -1
-35 15 -28 51 23 7 11 15 18 18 15 3 -3 10 -59 16 -125 12 -123 10 -165 -10
-293 l-12 -73 -67 -52 c-185 -144 -297 -342 -313 -549 -3 -38 -1 -70 4 -74 5
-3 9 1 9 8 0 10 2 10 9 -1 5 -8 14 -10 21 -6 7 4 20 8 29 9 20 2 87 24 128 42
17 8 36 14 41 14 6 0 14 9 17 20 3 11 14 20 23 20 24 0 65 69 108 180 20 52
39 97 44 100 8 6 24 61 21 74 -1 6 2 19 7 30 6 12 15 56 21 99 6 43 18 92 27
108 8 17 11 28 4 24 -10 -6 -8 22 7 65 13 42 20 351 8 397 -6 25 15 39 90 63
41 13 58 28 49 42 -10 16 -119 7 -228 -18 l-112 -27 -49 24 c-44 20 -66 23
-182 24 -109 1 -138 -2 -170 -17z m425 -740 c-32 -141 -59 -221 -89 -271 -16
-26 -29 -54 -29 -61 0 -30 -109 -101 -127 -83 -22 23 60 236 129 334 54 75
125 163 133 163 2 0 -6 -37 -17 -82z"/>
<path d="M674 785 c-3 -8 -4 -20 -2 -27 3 -7 7 -1 10 15 6 29 1 36 -8 12z"/>
<path d="M657 710 c-3 -11 -1 -20 4 -20 5 0 9 9 9 20 0 11 -2 20 -4 20 -2 0
-6 -9 -9 -20z"/>
<path d="M1212 480 c-17 -38 -29 -70 -26 -70 7 0 65 132 61 137 -2 2 -18 -28
-35 -67z"/>
</g>
</svg>
