<?xml version="1.0" standalone="no"?>
<!DOCTYPE svg PUBLIC "-//W3C//DTD SVG 20010904//EN"
 "http://www.w3.org/TR/2001/REC-SVG-20010904/DTD/svg10.dtd">
<svg version="1.0" xmlns="http://www.w3.org/2000/svg"
 width="1800.000000pt" height="1800.000000pt" viewBox="0 0 1800.000000 1800.000000"
 preserveAspectRatio="xMidYMid meet">

<g transform="translate(0.000000,1800.000000) scale(0.100000,-0.100000)"
fill="#000000" stroke="none">
<path d="M10135 10116 c19 -16 18 -17 -25 -11 -99 14 -132 9 -199 -29 -64 -36
-150 -106 -132 -106 5 0 16 7 25 15 8 8 19 15 24 15 5 0 21 9 35 20 25 20 25
20 20 0 -3 -11 -13 -20 -23 -20 -9 0 -25 -9 -35 -20 -10 -11 -23 -20 -29 -20
-6 0 -20 -11 -30 -25 -10 -14 -28 -25 -39 -25 -16 0 -17 3 -7 15 18 21 3 19
-27 -5 -19 -15 -21 -20 -9 -20 9 0 16 -4 16 -10 0 -5 -4 -10 -10 -10 -5 0 -18
-8 -28 -17 -29 -28 -62 -53 -68 -53 -3 0 -13 -7 -21 -16 -9 -8 -25 -13 -35
-11 -20 6 -64 -23 -198 -129 -42 -34 -141 -111 -218 -172 -167 -131 -404 -334
-397 -340 2 -2 12 3 21 12 9 9 19 14 23 11 3 -4 -7 -18 -24 -32 -16 -14 -71
-64 -121 -112 -98 -94 -182 -150 -195 -129 -5 8 -18 3 -46 -17 -146 -111 -726
-671 -1264 -1221 -161 -164 -272 -314 -289 -388 -8 -35 -6 -134 5 -246 3 -36
10 -231 15 -435 10 -396 11 -408 40 -590 11 -66 24 -156 30 -200 34 -239 53
-329 101 -487 17 -54 28 -102 24 -108 -3 -6 3 -23 14 -39 25 -34 27 -67 7 -87
-13 -13 -13 -20 0 -62 9 -26 18 -58 21 -72 3 -14 21 -45 39 -69 20 -26 34 -56
34 -72 0 -15 4 -29 8 -31 4 -1 17 -17 27 -35 106 -172 233 -323 272 -323 7 0
54 -53 106 -117 135 -170 431 -450 695 -657 75 -59 84 -86 17 -54 -48 24 -63
21 -45 -9 30 -46 323 -269 547 -415 377 -246 608 -365 863 -446 105 -34 289
-98 374 -131 200 -77 434 -127 691 -147 118 -9 180 -6 219 11 72 31 297 226
505 435 282 284 407 440 563 702 48 82 88 152 88 155 0 4 29 64 64 133 112
220 203 504 316 990 9 41 24 100 33 131 34 117 93 515 127 854 24 249 47 434
60 485 14 52 41 149 56 200 25 84 75 512 85 735 5 121 8 346 5 500 -2 154 -5
323 -5 375 -1 112 -20 287 -33 313 -5 10 -13 37 -18 60 -10 47 -6 -103 10
-353 12 -189 13 -794 1 -896 -6 -43 -15 -128 -21 -189 -21 -217 -31 -292 -55
-410 -13 -66 -26 -140 -30 -165 -14 -87 -66 -286 -83 -316 -16 -26 -16 73 -1
205 9 75 9 123 0 188 -6 48 -7 89 -3 92 8 7 10 18 21 152 10 112 5 392 -9 542
-14 141 -66 301 -156 479 -73 144 -346 560 -441 672 -32 38 -76 92 -98 120
-181 232 -376 428 -911 912 -82 74 -262 225 -380 317 -27 22 -80 57 -119 80
-38 22 -83 50 -100 63 -56 42 -204 114 -247 120 -41 6 -42 6 -23 -10z m530
-316 c3 -5 -1 -10 -9 -10 -9 0 -16 5 -16 10 0 6 4 10 9 10 6 0 13 -4 16 -10z
m-435 -205 c65 -8 113 -23 201 -64 25 -11 50 -21 56 -21 14 0 224 -100 233
-111 3 -3 20 -14 38 -23 17 -9 32 -20 32 -24 0 -4 21 -16 48 -26 26 -11 58
-27 72 -37 73 -49 122 -79 131 -79 5 0 9 -4 9 -8 0 -5 33 -29 74 -55 108 -69
181 -146 159 -168 -5 -5 -71 -2 -148 6 -734 78 -1138 90 -1750 50 -218 -14
-378 -27 -437 -35 -86 -13 -128 -13 -128 0 0 6 11 16 25 22 14 6 25 14 25 18
0 13 144 127 241 191 52 35 96 67 97 71 2 4 10 8 18 8 8 0 22 8 32 18 9 9 37
24 61 32 24 8 49 19 55 25 6 6 36 21 66 34 30 13 82 40 115 60 34 21 82 43
108 50 26 8 50 18 53 22 5 10 74 30 119 36 17 2 53 7 80 12 50 8 231 6 315 -4z
m1336 -600 c43 -38 87 -81 98 -95 12 -13 53 -59 91 -101 39 -42 84 -94 101
-115 63 -79 134 -194 120 -194 -2 0 -66 78 -142 173 -76 94 -191 225 -254 291
-127 131 -133 150 -14 41z m-1487 -402 c61 3 111 2 111 -2 0 -3 46 -7 103 -8
56 -1 116 -7 132 -13 16 -6 48 -13 70 -16 22 -3 52 -10 67 -16 15 -5 32 -7 39
-3 6 4 14 3 18 -3 4 -6 22 -13 41 -16 65 -8 155 -29 165 -37 5 -5 22 -9 37 -9
15 0 28 -4 28 -9 0 -5 17 -12 38 -16 20 -4 43 -12 51 -18 8 -7 16 -11 18 -9 8
6 24 1 19 -7 -3 -5 12 -11 33 -14 21 -2 51 -13 66 -23 16 -10 33 -19 39 -19 6
-1 24 -5 39 -9 l28 -8 -53 -36 c-76 -50 -118 -91 -139 -137 -27 -58 -24 -107
7 -144 33 -40 67 -40 144 -1 55 28 204 90 216 90 2 0 -1 -10 -7 -22 -8 -15 -8
-23 -1 -26 5 -1 8 -12 5 -23 -3 -11 2 -28 12 -39 9 -10 18 -35 20 -56 3 -25
12 -45 31 -60 25 -22 26 -25 13 -56 -10 -24 -10 -33 -1 -36 15 -5 16 -22 1
-22 -7 0 -17 -6 -23 -14 -6 -7 -42 -26 -81 -41 -130 -53 -224 -115 -325 -215
-104 -103 -161 -175 -206 -260 -39 -74 -39 -74 -20 -67 24 9 20 -3 -33 -115
-67 -140 -138 -342 -146 -415 -11 -89 9 -90 36 -1 46 155 142 364 219 478 54
79 183 211 230 235 30 16 24 6 -42 -64 -169 -180 -234 -414 -171 -624 64 -215
242 -347 468 -347 150 0 281 55 375 157 55 60 80 109 117 230 22 76 26 106 26
218 0 114 -3 140 -26 212 -54 164 -182 283 -350 327 -68 18 -41 31 47 23 83
-8 159 -37 252 -99 144 -93 237 -214 295 -381 23 -67 29 -99 29 -174 0 -191
-38 -273 -194 -419 l-91 -85 60 33 c66 35 95 44 95 27 0 -7 9 -9 23 -6 27 7
42 -1 51 -29 7 -23 7 -96 1 -159 -10 -95 -12 -111 -19 -134 -5 -13 -10 -47
-11 -75 -4 -70 -25 -190 -34 -196 -5 -3 -11 -23 -15 -45 -4 -22 -14 -59 -21
-82 -8 -23 -12 -49 -9 -58 4 -8 1 -15 -5 -15 -6 0 -11 -15 -11 -32 -1 -18 -9
-51 -20 -73 -11 -22 -19 -50 -20 -62 0 -12 -6 -34 -14 -50 -21 -41 -46 -100
-46 -109 0 -4 -15 -39 -34 -78 -18 -39 -37 -82 -41 -96 -4 -14 -10 -27 -14
-30 -3 -3 -28 -48 -54 -100 -57 -112 -113 -204 -127 -208 -5 -2 -10 -12 -10
-23 0 -10 -4 -19 -10 -19 -5 0 -10 -7 -10 -15 0 -8 -3 -15 -7 -15 -5 0 -21
-21 -38 -48 -16 -26 -38 -55 -47 -64 -10 -10 -18 -27 -18 -38 0 -10 -6 -23
-13 -27 -7 -4 -24 -26 -37 -48 -32 -53 -60 -84 -87 -95 -13 -5 -20 -15 -18
-22 5 -13 -70 -98 -85 -98 -5 0 -11 -8 -14 -17 -3 -10 -21 -28 -39 -40 -18
-13 -50 -38 -71 -58 -21 -19 -43 -35 -48 -35 -6 0 -42 -33 -82 -74 -39 -40
-81 -76 -94 -80 -12 -4 -27 -16 -32 -27 -6 -10 -16 -19 -23 -19 -7 0 -19 -9
-27 -20 -8 -11 -23 -20 -34 -20 -10 0 -30 -12 -43 -27 -20 -21 -27 -23 -34
-12 -8 12 -10 12 -19 -1 -6 -10 -10 -11 -10 -2 0 6 -4 12 -10 12 -5 0 -10 -7
-10 -15 0 -9 -6 -12 -16 -8 -15 6 -15 8 2 20 16 11 17 17 6 33 -7 12 -8 20 -2
20 5 0 10 25 10 55 0 38 4 53 13 51 6 -1 9 -1 5 1 -5 3 -8 12 -8 20 0 11 -7
14 -25 11 -19 -4 -23 -2 -16 10 17 31 205 232 221 237 18 6 40 45 40 70 0 23
-39 41 -125 60 -44 10 -156 42 -248 71 -92 30 -180 54 -195 54 -15 0 -71 -14
-124 -31 l-97 -32 -85 27 c-107 33 -157 33 -303 -3 -223 -54 -304 -65 -500
-65 -168 1 -183 -1 -183 -17 0 -37 182 -247 300 -344 63 -53 86 -85 61 -85 -5
0 -11 -16 -13 -36 -5 -45 15 -78 78 -130 56 -46 258 -147 324 -162 115 -27
103 -25 190 -37 25 -4 52 -7 60 -7 8 0 20 -4 25 -8 6 -4 33 -1 60 6 28 8 79
19 115 24 36 6 67 15 68 20 2 6 15 10 28 10 14 0 38 7 54 15 27 14 30 14 40
-5 6 -11 16 -20 22 -20 7 0 7 4 -1 13 -13 16 -5 27 21 27 10 0 18 -7 18 -15 0
-8 -4 -15 -10 -15 -5 0 -10 -7 -10 -15 0 -8 -6 -15 -13 -15 -7 0 -21 -11 -31
-25 -10 -14 -27 -25 -37 -25 -13 0 -16 -5 -12 -16 5 -13 2 -15 -15 -9 -16 4
-22 2 -22 -8 0 -7 -12 -20 -27 -28 -16 -8 -31 -18 -34 -23 -4 -5 -18 -10 -32
-11 -13 -2 -35 -9 -48 -16 -13 -7 -25 -12 -26 -11 -2 1 -11 2 -20 1 -15 0 -15
-2 2 -9 17 -7 17 -9 3 -9 -11 -1 -15 -6 -12 -15 3 -8 -4 -21 -16 -29 -15 -10
-18 -16 -8 -19 11 -4 11 -8 -1 -21 -11 -14 -11 -17 0 -18 10 0 11 -2 2 -6 -15
-6 -17 -33 -3 -33 21 0 9 -26 -23 -47 -31 -21 -100 -50 -142 -59 -11 -2 -31
-7 -45 -10 -14 -3 -95 -7 -180 -9 -153 -3 -317 10 -410 35 -25 6 -65 15 -90
20 -85 17 -315 101 -430 157 -63 31 -117 59 -120 63 -3 4 -13 10 -23 13 -18 7
-149 94 -191 127 -16 13 -84 69 -136 112 -9 7 -28 21 -43 31 -15 10 -25 22
-22 28 4 5 3 8 -2 7 -16 -6 -74 56 -70 74 3 10 2 16 -3 13 -10 -6 -55 33 -47
41 9 9 68 -7 61 -17 -3 -5 0 -9 5 -9 6 0 11 5 11 10 0 6 10 4 23 -4 12 -8 34
-15 50 -15 46 -2 57 -4 52 -9 -6 -6 28 -20 140 -59 39 -13 79 -28 90 -33 38
-17 96 -32 102 -26 3 3 17 -1 32 -8 14 -8 39 -14 55 -14 15 0 31 -4 35 -10 3
-6 19 -15 33 -21 26 -10 27 -9 18 13 -6 16 -5 28 3 36 7 7 7 10 1 7 -5 -3 -21
8 -35 25 -35 46 -89 102 -89 94 0 -16 -49 18 -117 82 -13 12 -28 22 -33 22 -6
0 -10 4 -10 10 0 12 -56 70 -68 70 -6 0 -12 9 -15 21 -3 11 -15 23 -26 26 -12
3 -21 10 -21 17 0 6 -13 19 -30 28 -18 10 -32 29 -38 50 -6 23 -14 33 -28 33
-24 0 -46 14 -39 25 6 10 -41 60 -55 60 -6 0 -10 4 -10 9 0 4 -16 25 -35 45
-19 21 -35 44 -35 52 0 8 -7 14 -15 14 -8 0 -15 4 -15 10 0 5 -7 18 -15 27
-32 39 -66 89 -77 116 -7 15 -18 27 -25 27 -7 0 -13 5 -13 11 0 7 -9 20 -21
30 -11 10 -18 22 -15 27 3 5 -9 24 -27 43 -17 19 -32 43 -33 54 -1 19 -23 75
-34 85 -12 12 -50 90 -50 104 0 9 -4 16 -10 16 -5 0 -10 7 -10 15 0 8 -4 15
-10 15 -5 0 -12 11 -16 25 -3 14 -10 25 -15 25 -5 0 -9 7 -9 15 0 8 -4 15 -9
15 -9 0 -26 56 -19 62 1 2 -14 33 -35 70 -20 36 -37 72 -37 78 0 7 -9 23 -20
37 -11 14 -20 38 -20 52 0 15 -8 36 -18 47 -10 11 -22 33 -26 49 -4 16 -19 54
-33 85 -14 30 -32 70 -40 88 -8 18 -21 36 -28 38 -7 3 -17 24 -21 47 -3 23
-13 51 -20 62 -8 11 -14 30 -14 42 0 13 -4 23 -9 23 -12 0 -23 44 -26 105 -1
27 -8 51 -14 53 -6 2 -11 14 -11 26 0 12 -6 31 -14 42 -13 19 -19 71 -31 304
-1 30 2 58 8 61 6 5 6 17 -1 38 -6 17 -7 33 -3 36 5 2 9 27 9 54 1 27 6 59 11
72 5 13 9 28 9 33 0 5 4 12 9 15 5 3 15 25 21 49 7 23 17 42 22 42 6 0 10 10
10 23 0 19 2 18 20 -10 11 -18 24 -33 29 -33 5 0 15 24 21 54 27 130 249 404
428 528 70 48 217 117 251 118 7 0 -20 -27 -62 -60 -161 -127 -247 -297 -247
-490 0 -164 61 -313 174 -426 137 -137 320 -192 490 -148 168 43 324 171 384
315 41 100 57 222 42 331 -30 216 -138 365 -340 467 -105 52 -100 60 15 24
173 -54 395 -242 504 -426 59 -101 117 -215 136 -267 22 -61 56 -132 61 -127
8 8 -27 157 -58 245 -16 47 -54 137 -83 199 -30 62 -50 113 -46 113 4 0 16 -7
27 -15 51 -39 45 6 -20 133 -67 132 -182 254 -293 310 -150 77 -256 97 -500
96 l-193 -1 7 26 c7 33 40 64 58 57 8 -3 17 -1 20 4 4 6 -5 10 -19 10 -14 0
-26 5 -26 10 0 6 7 10 15 10 8 0 15 5 15 11 0 14 25 39 39 39 6 0 11 7 11 16
0 10 6 14 15 10 9 -3 19 3 27 17 14 27 95 107 108 107 15 0 67 55 63 67 -2 6
11 16 29 23 18 7 28 14 21 17 -21 8 9 43 36 43 58 0 267 -72 393 -136 162 -82
258 -56 258 69 0 85 -66 148 -229 218 l-102 44 48 7 c26 4 49 12 51 18 2 5 8
8 13 5 11 -7 109 35 109 46 0 5 11 7 25 3 17 -4 25 -2 25 7 0 7 3 10 6 6 3 -3
25 3 48 13 23 9 67 21 96 25 30 4 70 14 88 22 17 9 42 13 53 10 12 -3 31 -2
44 3 13 5 61 11 107 15 47 3 99 10 117 15 18 5 39 6 47 3 8 -3 14 -1 14 5 0 6
38 9 96 8 52 -1 100 2 107 6 6 4 17 2 23 -3 7 -6 59 -8 123 -6z m2141 -463 c0
-5 -2 -10 -4 -10 -3 0 -8 5 -11 10 -3 6 -1 10 4 10 6 0 11 -4 11 -10z m-3770
-501 c46 -5 91 -15 99 -20 12 -7 7 -9 -19 -5 -19 3 -82 9 -140 13 -73 5 -96 9
-75 14 44 10 44 10 135 -2z m204 -44 c21 -9 36 -18 34 -20 -8 -8 -118 28 -118
37 0 12 30 5 84 -17z m2626 -20 c0 -8 -62 -37 -67 -31 -3 3 10 12 28 20 42 18
39 17 39 11z m-2530 -21 c0 -2 -9 -4 -20 -4 -11 0 -20 4 -20 9 0 5 9 7 20 4
11 -3 20 -7 20 -9z m-483 -214 c49 -29 66 -63 61 -115 -9 -79 -74 -144 -152
-152 -84 -10 -156 49 -156 128 0 43 45 110 93 139 42 26 112 26 154 0z m3085
-37 c40 -41 46 -89 18 -148 -28 -58 -70 -85 -132 -85 -87 0 -145 80 -113 156
46 110 156 147 227 77z m-4505 -35 c-3 -8 -6 -5 -6 6 -1 11 2 17 5 13 3 -3 4
-12 1 -19z m4923 -445 c30 -34 32 -40 27 -92 -12 -133 -81 -238 -191 -290
-115 -55 -237 -60 -346 -15 -37 16 -80 51 -80 66 0 29 29 36 136 35 100 -2
113 0 165 26 76 37 143 111 186 205 37 81 50 102 63 102 4 0 22 -17 40 -37z
m-2980 -3 c16 0 32 -61 26 -100 -21 -135 -79 -211 -211 -276 -80 -40 -105 -48
-168 -52 -106 -7 -215 26 -274 84 -30 28 -42 46 -37 58 8 20 12 20 94 0 196
-47 325 7 441 184 52 80 87 114 107 107 8 -3 17 -5 22 -5z"/>
<path d="M7590 6496 c0 -2 7 -7 16 -10 8 -3 12 -2 9 4 -6 10 -25 14 -25 6z"/>
<path d="M10581 5375 c-12 -31 -21 -58 -21 -62 0 -3 -17 -28 -37 -54 -56 -73
-161 -115 -342 -134 -63 -6 -72 -11 -65 -29 3 -9 -3 -17 -16 -21 -15 -5 -18
-10 -11 -19 6 -7 8 -16 4 -19 -3 -4 -1 -7 5 -7 25 0 10 -19 -23 -30 -23 -7
-40 -8 -52 -2 -11 6 -26 7 -42 1 -29 -12 -77 -5 -153 21 -104 36 -180 87 -225
150 -34 48 -43 50 -43 10 0 -17 -8 -43 -17 -57 -10 -15 -18 -41 -19 -57 -3
-61 57 -189 129 -276 29 -36 189 -144 267 -181 74 -35 151 -59 189 -59 47 0
169 20 231 37 78 22 151 83 222 183 98 139 135 262 124 411 -10 131 -46 249
-76 249 -4 0 -18 -25 -29 -55z"/>
<path d="M9635 9880 c-3 -5 -1 -10 4 -10 6 0 11 5 11 10 0 6 -2 10 -4 10 -3 0
-8 -4 -11 -10z"/>
<path d="M9548 9803 c7 -3 16 -2 19 1 4 3 -2 6 -13 5 -11 0 -14 -3 -6 -6z"/>
<path d="M8605 9060 c-10 -11 -15 -20 -11 -20 4 0 16 9 28 20 12 11 17 20 11
20 -5 0 -18 -9 -28 -20z"/>
<path d="M6825 8828 c-34 -147 -61 -488 -38 -488 18 0 34 93 49 285 1 17 3 30
4 30 2 0 10 97 13 154 2 39 -19 54 -28 19z"/>
<path d="M5626 6639 c-4 -23 -2 -56 3 -73 5 -17 12 -61 15 -98 11 -119 17
-152 33 -196 8 -24 13 -55 10 -70 -3 -14 2 -36 10 -48 8 -13 12 -27 9 -32 -3
-5 2 -31 10 -58 8 -27 12 -59 9 -71 -3 -13 -2 -23 3 -23 5 0 9 -16 10 -35 2
-38 48 -238 63 -270 5 -11 11 -29 12 -40 2 -11 9 -31 14 -45 6 -14 13 -51 17
-82 4 -32 11 -58 15 -58 10 0 34 -80 27 -87 -7 -7 23 -84 41 -104 7 -9 10 -18
7 -22 -4 -3 4 -30 18 -59 32 -68 86 -215 94 -256 3 -17 15 -39 25 -48 11 -9
19 -25 19 -36 0 -10 3 -18 8 -18 8 0 25 -38 37 -80 4 -14 15 -34 25 -45 24
-28 43 -65 36 -73 -4 -3 3 -15 14 -27 12 -12 20 -26 18 -31 -3 -12 28 -70 60
-111 13 -18 22 -33 18 -33 -8 0 41 -90 61 -112 12 -13 13 -21 4 -31 -14 -18
-3 -29 19 -17 17 9 30 4 30 -12 0 -5 -4 -6 -10 -3 -23 14 -7 -9 38 -54 26 -27
57 -52 69 -55 23 -7 37 -39 31 -67 -2 -8 4 -13 14 -13 10 1 14 -4 11 -12 -3
-8 -10 -11 -16 -7 -6 3 -7 1 -3 -6 4 -6 12 -9 17 -6 5 4 19 3 30 0 16 -5 18
-9 8 -15 -19 -12 5 -37 64 -66 43 -20 47 -21 32 -4 -9 10 -14 24 -10 29 3 6 2
11 -4 11 -11 0 -21 27 -27 77 -3 20 -10 43 -16 50 -6 7 -7 13 -2 13 5 0 5 4
-1 8 -13 9 -58 92 -51 92 4 0 -5 18 -19 40 -14 22 -25 44 -25 49 0 12 -88 181
-104 201 -21 25 -106 176 -106 188 0 5 -4 12 -8 14 -10 4 -93 159 -112 208 -7
19 -28 67 -47 106 -18 39 -33 78 -33 86 0 8 -13 42 -30 76 -16 34 -30 65 -30
68 0 4 -27 75 -59 158 -155 395 -205 527 -216 576 -26 112 -49 199 -56 215 -5
11 -16 65 -24 119 -9 55 -18 103 -21 107 -2 5 -7 25 -9 46 -3 21 -10 58 -16
83 -6 25 -16 64 -21 88 -13 53 -24 54 -32 1z"/>
<path d="M6420 5641 c0 -12 5 -21 10 -21 6 0 10 6 10 14 0 8 -4 18 -10 21 -5
3 -10 -3 -10 -14z"/>
<path d="M6430 5593 c0 -20 55 -113 67 -113 8 0 12 -4 9 -9 -3 -4 3 -27 14
-49 11 -23 20 -47 21 -54 1 -21 67 -126 136 -216 20 -26 42 -62 50 -79 7 -18
17 -33 22 -33 4 0 13 -12 20 -26 17 -39 99 -141 150 -188 24 -23 49 -47 55
-53 79 -90 386 -394 386 -383 0 15 -122 174 -181 235 -16 17 -29 35 -29 41 0
10 -64 99 -111 152 -16 18 -29 42 -29 54 0 16 -5 19 -22 15 -31 -8 -89 51 -81
83 6 21 4 22 -23 17 -16 -3 -23 -4 -16 -1 6 3 12 12 12 19 0 21 -21 30 -32 14
-6 -10 -8 -7 -6 10 2 19 -3 26 -19 30 -24 7 -117 130 -156 208 -14 29 -35 63
-47 75 -11 13 -23 32 -26 43 -3 11 -18 28 -33 36 -18 10 -34 32 -41 55 -7 22
-16 41 -19 44 -4 3 -17 22 -30 43 -20 33 -41 49 -41 30z"/>
<path d="M5230 5540 c0 -5 7 -10 15 -10 8 0 15 5 15 10 0 6 -7 10 -15 10 -8 0
-15 -4 -15 -10z"/>
<path d="M6995 5181 c-3 -5 -1 -12 5 -16 5 -3 10 1 10 9 0 18 -6 21 -15 7z"/>
<path d="M12527 3763 c-2 -5 -4 -19 -5 -33 -2 -32 -46 -122 -55 -113 -4 3 -7
-3 -7 -15 0 -21 -26 -76 -47 -99 -6 -7 -17 -30 -23 -50 -17 -53 -69 -161 -80
-168 -6 -3 -10 -13 -10 -20 0 -8 -13 -37 -30 -63 -16 -27 -30 -59 -30 -71 0
-11 -4 -21 -10 -21 -5 0 -12 -11 -16 -25 -3 -14 -10 -25 -15 -25 -5 0 -9 -9
-9 -20 0 -10 -6 -23 -13 -27 -6 -4 -19 -21 -27 -38 -15 -32 -44 -65 -57 -65
-8 -1 -50 -51 -120 -145 -49 -64 -122 -135 -139 -135 -8 0 -28 -13 -46 -30
-17 -16 -35 -30 -40 -30 -10 0 -38 -25 -38 -34 0 -3 10 -6 23 -6 13 0 28 -5
35 -12 9 -9 12 -9 12 0 0 6 7 9 15 6 24 -9 113 26 144 56 16 16 31 27 33 24 3
-2 27 21 54 53 26 32 58 69 71 81 12 13 32 44 43 68 12 24 26 42 31 38 5 -3 9
6 9 20 0 14 4 27 9 30 5 4 15 29 22 56 7 28 19 55 25 61 8 6 10 23 7 45 -4 22
-2 34 6 34 6 0 11 11 11 25 0 15 6 25 14 25 8 0 19 20 27 48 7 26 20 52 28 58
9 7 31 43 50 80 19 38 40 76 47 84 26 33 58 98 70 145 7 28 20 73 27 100 22
78 27 115 17 115 -5 0 -11 -3 -13 -7z"/>
<path d="M12320 2470 c-13 -19 -23 -44 -22 -56 1 -12 -5 -25 -14 -28 -12 -5
-15 -2 -10 11 4 11 -3 7 -18 -9 -14 -16 -30 -28 -36 -28 -5 0 -10 -4 -10 -8 0
-24 -291 -125 -429 -148 -53 -9 -109 -24 -126 -32 -16 -9 -32 -17 -35 -17 -3
-1 -27 -5 -55 -9 -50 -8 -125 -33 -202 -67 -23 -11 -50 -19 -60 -19 -10 0 -29
-7 -41 -16 -12 -8 -30 -14 -40 -13 -25 3 -100 -18 -157 -46 -53 -25 -134 -39
-225 -38 -30 1 -60 -3 -67 -8 -7 -6 -107 -8 -250 -6 -217 4 -316 14 -393 41
-8 3 -33 8 -55 11 -54 8 -141 33 -193 56 -23 10 -48 19 -55 19 -7 0 -29 9 -50
20 -48 26 -69 25 -37 -2 l25 -21 -28 7 c-25 6 -26 5 -16 -12 11 -17 70 -51
152 -86 21 -9 36 -12 32 -6 -3 5 1 10 10 10 9 0 14 -4 11 -9 -13 -20 284 -151
439 -192 165 -44 456 -50 650 -15 275 51 257 46 391 102 45 19 90 34 100 34
11 0 28 6 39 13 11 7 45 19 75 26 30 7 69 19 85 26 17 7 71 30 120 51 50 21
112 51 139 67 76 47 198 97 236 97 52 0 63 -11 42 -41 -53 -81 -443 -361 -607
-438 -188 -88 -210 -98 -385 -163 -268 -100 -380 -132 -495 -142 -27 -2 -72
-9 -100 -14 -60 -12 -229 -7 -305 8 -30 6 -65 13 -77 16 -26 5 -31 -11 -7 -20
9 -3 37 -9 63 -11 25 -3 60 -10 76 -15 51 -15 195 -31 305 -34 58 -1 110 -4
115 -6 6 -2 17 0 25 3 35 14 166 23 207 15 39 -9 43 -12 41 -36 -2 -15 -16
-39 -32 -54 -42 -40 -145 -88 -189 -88 -20 0 -37 -4 -37 -10 0 -5 -8 -10 -19
-10 -22 0 -90 -27 -111 -44 -8 -7 -26 -13 -39 -14 -14 0 -29 -8 -33 -17 -5 -8
-18 -15 -28 -15 -10 0 -22 -4 -25 -10 -3 -5 -22 -10 -41 -10 -19 0 -34 -4 -34
-8 0 -8 -112 -33 -164 -38 -10 -1 -21 -6 -25 -11 -3 -5 -18 -10 -32 -11 -15
-1 -39 -6 -54 -12 -27 -10 -27 -11 -9 -24 45 -31 264 -43 399 -21 127 20 248
51 302 75 24 11 49 20 56 20 7 0 17 4 23 8 5 5 47 24 94 42 47 18 98 38 114
45 31 14 60 10 77 -11 14 -17 39 -18 39 -2 0 16 72 80 135 120 28 18 53 38 57
44 12 19 125 57 150 50 36 -9 91 -60 155 -142 84 -111 195 -260 244 -329 23
-33 60 -85 83 -115 44 -59 129 -186 191 -285 21 -33 63 -98 95 -145 76 -114
130 -212 130 -237 0 -15 9 -22 31 -27 40 -8 84 -8 92 0 3 3 -20 40 -51 83 -31
42 -88 134 -125 204 -38 70 -72 125 -76 123 -4 -3 -8 4 -8 16 -2 19 -100 174
-220 348 -29 41 -85 127 -125 190 -39 63 -113 176 -163 251 -110 163 -138 219
-129 257 24 97 86 156 211 198 54 18 83 47 115 114 12 25 43 66 70 93 57 56
84 59 155 21 l48 -25 14 20 c7 12 20 21 27 21 25 0 51 23 47 40 -3 12 5 21 26
30 17 7 31 17 31 22 0 6 9 23 21 40 12 16 20 30 18 32 -10 8 -140 66 -147 66
-5 0 -16 8 -24 18 -12 13 -14 30 -8 77 8 69 1 95 -40 141 -26 30 -28 37 -19
64 17 46 5 57 -21 20z"/>
<path d="M10210 1390 c0 -5 5 -10 11 -10 5 0 7 5 4 10 -3 6 -8 10 -11 10 -2 0
-4 -4 -4 -10z"/>
<path d="M9798 723 c7 -3 16 -2 19 1 4 3 -2 6 -13 5 -11 0 -14 -3 -6 -6z"/>
<path d="M9852 701 c1 -6 52 -43 112 -83 106 -71 144 -108 97 -95 -11 3 -21 3
-21 0 0 -7 36 -55 69 -92 23 -27 28 -59 9 -66 -7 -3 -13 -20 -14 -39 0 -37
-37 -118 -84 -187 -16 -24 -30 -54 -30 -66 0 -13 -11 -30 -25 -39 -33 -22 -32
-34 5 -34 23 0 30 4 30 20 0 28 27 84 87 177 29 45 74 122 101 170 27 48 59
104 71 123 30 50 26 69 -25 123 -54 56 -79 57 -68 2 l6 -36 -42 7 c-23 4 -88
30 -143 58 -120 61 -140 69 -135 57z"/>
<path d="M9610 625 c0 -8 5 -15 10 -15 6 0 10 7 10 15 0 8 -4 15 -10 15 -5 0
-10 -7 -10 -15z"/>
<path d="M10698 543 c12 -15 22 -35 23 -43 6 -33 -53 -135 -120 -209 -17 -19
-40 -53 -52 -75 -12 -23 -42 -77 -68 -121 -56 -94 -57 -93 71 -94 l88 -1 35
74 c19 41 35 77 35 81 0 3 11 30 23 58 30 65 41 115 41 193 1 50 -4 68 -26
102 -15 23 -37 46 -49 52 l-21 12 20 -29z"/>
<path d="M9372 263 c-42 -51 -192 -252 -192 -258 0 -9 159 -5 164 4 3 5 -15
16 -39 26 -25 9 -45 21 -45 26 0 9 66 87 85 101 15 11 27 -3 23 -26 -3 -16 5
-27 33 -46 21 -13 36 -27 34 -31 -4 -6 24 -19 50 -23 6 -1 19 -7 30 -13 26
-14 245 -28 245 -15 0 5 -24 21 -52 37 -29 15 -75 40 -103 55 -109 60 -193
100 -209 100 -20 0 -21 32 -1 70 20 40 15 38 -23 -7z"/>
<path d="M13968 255 c2 -14 6 -25 8 -25 2 0 4 11 4 25 0 14 -4 25 -9 25 -4 0
-6 -11 -3 -25z"/>
<path d="M11084 217 c-11 -12 -35 -44 -54 -72 -18 -27 -48 -69 -66 -91 -18
-23 -30 -44 -27 -48 8 -8 150 -8 180 0 18 5 20 10 13 28 -11 30 -15 137 -5
159 5 12 3 24 -6 32 -12 12 -17 11 -35 -8z"/>
<path d="M11210 150 c0 -4 13 -13 28 -19 15 -6 55 -30 87 -51 72 -48 89 -51
49 -9 -51 53 -164 108 -164 79z"/>
<path d="M3655 20 c-4 -6 11 -10 37 -10 31 0 39 3 28 10 -20 13 -57 13 -65 0z"/>
<path d="M7160 19 c0 -5 46 -9 103 -8 56 0 98 2 92 4 -24 8 -195 12 -195 4z"/>
<path d="M11410 20 c0 -5 14 -10 32 -10 36 0 35 4 -4 14 -17 4 -28 2 -28 -4z"/>
<path d="M14010 20 c-11 -7 -5 -10 23 -10 20 0 37 5 37 10 0 13 -40 13 -60 0z"/>
</g>
</svg>
